<svg xmlns="http://www.w3.org/2000/svg" viewBox="0 0 512 512">
  <defs>
    <radialGradient id="sky" cx="50%" cy="35%" r="70%">
      <stop offset="0%" stop-color="#1a2d61"/>
      <stop offset="60%" stop-color="#0b1025"/>
      <stop offset="100%" stop-color="#05070f"/>
    </radialGradient>
    <linearGradient id="meteor" x1="0" y1="0" x2="1" y2="1">
      <stop offset="0%" stop-color="#ffe39c"/>
      <stop offset="55%" stop-color="#ff9e43"/>
      <stop offset="100%" stop-color="#d73333"/>
    </linearGradient>
    <linearGradient id="trail" x1="0" y1="0" x2="1" y2="1">
      <stop offset="0%" stop-color="#fff9cb" stop-opacity="1"/>
      <stop offset="100%" stop-color="#ff7a00" stop-opacity="0"/>
    </linearGradient>
  </defs>
  <rect width="512" height="512" rx="160" fill="url(#sky)"/>
  <path d="M86 350c96-26 176-88 240-189 19-30 34-62 42-101 39 84 20 182-48 252-54 55-132 90-234 106z" fill="url(#trail)"/>
  <g transform="translate(292 240) rotate(-20)">
    <path d="M-74-18c31-49 95-81 152-45 59 37 62 118 24 173-37 55-118 88-174 46-54-40-53-118-2-174z" fill="url(#meteor)"/>
    <path d="M-8-88c20-22 59-30 81-6 16 18 7 50-20 63-31 16-57 6-62-14-4-13-1-28 1-43z" fill="#fff0bd" opacity="0.92"/>
    <circle cx="20" cy="18" r="18" fill="#6e130e" opacity="0.34"/>
    <circle cx="-34" cy="58" r="13" fill="#6e130e" opacity="0.28"/>
    <circle cx="70" cy="60" r="12" fill="#6e130e" opacity="0.24"/>
  </g>
</svg>
